<?xml version="1.0" encoding="UTF-8" standalone="no"?>
<svg
   version="1.0"
   width="32pt"
   height="32pt"
   viewBox="0 0 32 32"
   preserveAspectRatio="xMidYMid"
   id="svg9"
   sodipodi:docname="astronomy_32.svg"
   inkscape:version="1.4 (86a8ad7, 2024-10-11)"
   xmlns:inkscape="http://www.inkscape.org/namespaces/inkscape"
   xmlns:sodipodi="http://sodipodi.sourceforge.net/DTD/sodipodi-0.dtd"
   xmlns="http://www.w3.org/2000/svg"
   xmlns:svg="http://www.w3.org/2000/svg">
  <defs
     id="defs9" />
  <sodipodi:namedview
     id="namedview9"
     pagecolor="#ffffff"
     bordercolor="#000000"
     borderopacity="0.25"
     inkscape:showpageshadow="2"
     inkscape:pageopacity="0.0"
     inkscape:pagecheckerboard="0"
     inkscape:deskcolor="#d1d1d1"
     inkscape:document-units="pt"
     inkscape:zoom="12.181019"
     inkscape:cx="27.378662"
     inkscape:cy="17.937744"
     inkscape:window-width="1920"
     inkscape:window-height="974"
     inkscape:window-x="-11"
     inkscape:window-y="-11"
     inkscape:window-maximized="1"
     inkscape:current-layer="svg9" />
  <g
     transform="matrix(-0.00629543,0,0,-0.00629829,32.029678,32.181136)"
     fill="#000000"
     stroke="none"
     id="g9"
     style="fill:#0098ff;fill-opacity:1">
    <path
       d="m 50,5076 c -20,-25 -8,-61 21,-64 36,-4 55,21 41,53 -13,28 -43,33 -62,11 z"
       id="path1"
       style="fill:#0098ff;fill-opacity:1" />
    <path
       d="m 4810,5019 c -215,-37 -546,-208 -902,-467 -103,-75 -128,-98 -128,-117 0,-14 9,-29 21,-35 17,-10 41,2 177,91 218,143 364,229 522,308 167,82 264,115 348,116 60,0 65,-2 94,-34 29,-32 30,-37 25,-100 -16,-224 -297,-693 -804,-1348 -162,-210 -434,-536 -614,-738 -150,-169 -434,-461 -492,-508 l -39,-30 -106,107 c -59,58 -114,106 -123,106 -9,0 -37,-16 -63,-36 -63,-48 -139,-81 -206,-89 l -55,-7 200,201 c 216,217 223,221 191,102 -16,-64 -13,-79 22,-88 18,-4 29,-1 38,12 20,27 36,118 33,194 l -2,70 95,103 c 209,226 279,312 276,338 -2,19 -10,26 -29,28 -22,3 -39,-11 -100,-80 -40,-46 -118,-132 -173,-191 l -99,-108 -29,53 c -16,29 -47,71 -69,94 l -39,40 101,115 c 218,246 359,459 359,539 0,102 -118,90 -292,-29 -88,-59 -238,-177 -318,-249 -47,-42 -49,-60 -8,-86 18,-11 14,-13 164,110 161,131 354,257 371,241 21,-22 -213,-340 -394,-537 l -48,-52 -77,26 c -142,48 -301,31 -419,-45 l -52,-33 -939,942 c -517,518 -942,942 -944,942 -19,0 -44,-24 -44,-43 0,-16 259,-281 936,-958 l 937,-937 -20,-28 c -95,-135 -119,-317 -60,-463 l 24,-60 -51,-48 c -131,-123 -403,-337 -478,-378 -21,-10 -41,-16 -45,-12 -20,21 107,218 261,407 65,78 86,111 84,130 -2,19 -10,26 -29,28 -22,3 -37,-10 -96,-80 -279,-332 -368,-518 -271,-565 105,-52 431,199 1001,769 247,246 291,287 307,278 22,-12 98,-123 106,-157 5,-20 -12,-42 -112,-146 -66,-67 -176,-178 -247,-246 l -128,-124 -72,37 c -40,20 -78,36 -85,36 -7,0 -17,-11 -24,-25 -14,-31 -4,-44 63,-83 l 49,-28 -45,-44 c -48,-47 -58,-83 -27,-99 23,-12 45,0 109,62 l 51,50 99,2 c 108,2 183,24 262,77 l 44,30 266,-266 c 175,-174 273,-266 287,-266 24,0 44,18 44,39 0,9 -68,83 -150,166 l -150,151 211,219 c 963,1003 1637,1909 1769,2379 29,104 26,216 -7,262 -41,58 -134,82 -243,63 z m -2195,-2012 39,-18 -264,-265 -265,-265 -20,43 c -16,34 -20,63 -19,138 0,113 25,179 95,255 54,59 88,82 158,112 48,20 69,23 146,20 58,-2 104,-9 130,-20 z"
       id="path2"
       style="fill:#0098ff;fill-opacity:1" />
    <path
       d="m 3762,4254 c -121,-30 -503,-249 -518,-298 -7,-23 31,-60 50,-49 6,4 49,32 96,63 176,118 298,179 407,205 73,18 93,11 93,-31 0,-69 -74,-207 -222,-416 l -73,-103 -35,12 c -74,27 -178,-14 -218,-85 -43,-77 -21,-193 46,-241 45,-32 111,-45 161,-31 53,14 113,72 129,126 15,53 15,64 -3,118 l -15,44 113,168 c 170,255 228,392 196,459 -32,64 -102,84 -207,59 z"
       id="path3"
       style="fill:#0098ff;fill-opacity:1" />
    <path
       d="m 2061,1986 c -16,-20 -5,-53 20,-61 27,-9 51,13 47,44 -2,20 -9,27 -29,29 -14,2 -31,-4 -38,-12 z"
       id="path4"
       style="fill:#0098ff;fill-opacity:1" />
    <path
       d="m 2740,1879 c -285,-273 -660,-612 -945,-852 l -160,-135 -39,35 c -59,54 -119,77 -201,77 -122,0 -231,-68 -286,-180 -33,-67 -34,-177 -1,-248 27,-59 47,-39 -188,-180 C 641,229 465,152 339,143 c -76,-6 -124,12 -139,53 -50,130 68,407 361,855 60,91 109,173 109,183 0,9 -12,22 -26,28 -31,14 -31,15 -152,-157 C 167,644 16,238 117,102 160,45 184,35 283,36 c 77,0 108,6 187,33 172,59 380,170 621,331 91,62 92,62 118,46 64,-42 96,-51 181,-51 69,0 94,4 132,23 68,34 134,104 159,171 20,54 22,98 7,217 -2,15 35,52 157,155 304,258 707,621 938,847 117,115 139,151 101,166 -29,11 -39,5 -144,-95 z"
       id="path5"
       style="fill:#0098ff;fill-opacity:1" />
    <path
       d="m 1769,1734 c -192,-159 -370,-298 -477,-372 -133,-93 -287,-161 -328,-145 -62,24 24,272 175,502 63,95 69,116 39,135 -27,16 -46,0 -110,-95 -205,-302 -262,-580 -129,-620 102,-30 245,38 526,250 154,116 512,410 518,425 7,17 -19,56 -37,56 -8,0 -87,-61 -177,-136 z"
       id="path6"
       style="fill:#0098ff;fill-opacity:1" />
    <path
       d="m 3525,1597 c -21,-16 -15,-61 11,-71 43,-17 76,52 35,74 -25,13 -24,13 -46,-3 z"
       id="path7"
       style="fill:#0098ff;fill-opacity:1" />
    <path
       d="m 3740,1375 c -10,-12 -10,-21 -1,-41 13,-29 47,-30 65,-1 23,37 -36,76 -64,42 z"
       id="path8"
       style="fill:#0098ff;fill-opacity:1" />
    <path
       d="m 3973,1148 c -6,-7 -13,-19 -18,-27 -11,-19 1051,-1081 1082,-1081 20,0 43,25 43,47 0,15 -1065,1073 -1081,1073 -9,0 -21,-6 -26,-12 z"
       id="path9"
       style="fill:#0098ff;fill-opacity:1" />
  </g>
</svg>
