<?xml version="1.0" encoding="UTF-8" standalone="no"?>
<svg
   version="1.2"
   viewBox="0 0 512 512"
   width="32"
   height="32"
   id="svg1"
   sodipodi:docname="moon-sun-star-32.svg"
   inkscape:version="1.4 (86a8ad7, 2024-10-11)"
   xmlns:inkscape="http://www.inkscape.org/namespaces/inkscape"
   xmlns:sodipodi="http://sodipodi.sourceforge.net/DTD/sodipodi-0.dtd"
   xmlns="http://www.w3.org/2000/svg"
   xmlns:svg="http://www.w3.org/2000/svg"
   xmlns:rdf="http://www.w3.org/1999/02/22-rdf-syntax-ns#"
   xmlns:cc="http://creativecommons.org/ns#"
   xmlns:dc="http://purl.org/dc/elements/1.1/">
  <defs
     id="defs1" />
  <sodipodi:namedview
     id="namedview1"
     pagecolor="#ffffff"
     bordercolor="#000000"
     borderopacity="0.25"
     inkscape:showpageshadow="2"
     inkscape:pageopacity="0.0"
     inkscape:pagecheckerboard="0"
     inkscape:deskcolor="#d1d1d1"
     inkscape:zoom="22.96875"
     inkscape:cx="16"
     inkscape:cy="16"
     inkscape:window-width="1920"
     inkscape:window-height="974"
     inkscape:window-x="-11"
     inkscape:window-y="-11"
     inkscape:window-maximized="1"
     inkscape:current-layer="svg1" />
  <title
     id="title1">moon-sun-star</title>
  <style
     id="style1">
		.s0 { fill: #000000 } 
	</style>
  <path
     fill-rule="evenodd"
     class="s0"
     d="m232.6 231.7c13.8 6.9 25.5 12.7 26.1 13l1.1 0.4-4.9-21.6c-2.6-11.9-5.7-25.5-6.8-30.3l-1.9-8.8 2.4 8.6c1.4 4.8 5.3 18.2 8.7 29.9l6.1 21.3 0.8-0.9c0.4-0.6 7.8-11.3 16.6-23.9 8.6-12.7 15.8-23 15.9-23 0.1 0-5.8 11.7-12.9 26-7.2 14.2-13 26-13 26.1 0.1 0.1 4.1-0.6 9-1.6 24.1-4.9 23.9-4.8 20.2-3.7-18.1 5.6-28.2 8.9-28.2 9 0 0.2 10.8 7.7 23.9 16.7 13.2 9 23.9 16.5 23.8 16.5 0 0.1-11.3-5.5-25-12.4-13.7-6.9-25.4-12.7-26-13l-1.1-0.4 4.8 21.6c2.7 11.9 5.8 25.5 6.9 30.3l1.9 8.8-2.5-8.6c-1.3-4.8-5.2-18.2-8.6-29.9l-6.2-21.3-0.7 0.9c-0.4 0.6-7.9 11.3-16.6 24-8.7 12.6-15.8 22.9-15.9 22.9-0.1 0 5.7-11.7 12.9-26 7.1-14.2 13-26 12.9-26.1 0-0.1-8.1 1.4-29 5.6l-3.5 0.8 3.4-1.1c22.2-7 28.2-8.9 28.2-9-0.1-0.2-10.8-7.7-24-16.7-13.1-9-23.8-16.5-23.8-16.5 0.1-0.1 11.3 5.5 25 12.4zm194.4-48.4c0 2.6-2.1 4.7-4.7 4.7-2.6 0-4.7-2.1-4.7-4.7 0-2.6 2.1-4.7 4.7-4.7 2.6 0 4.7 2.1 4.7 4.7zm32.5-0.9v1.5l-30 0.1v-1.5zm-32.5 6.1l20 19.8-1 1.1-20.1-19.9zm-5.4 2.1h1.5l0.2 36h-1.5zm-6.1-6.4l-24.5 0.1v-1.5l24.5-0.1zm7.5-7.3h-1.5l-0.1-30.9h1.5zm-5.6 3.7l-18.8-13.9 0.8-1.2 0.3 0.2 18.9 13.9-0.9 1.2zm9.5-0.8l-1.1-1 19.9-21.1 1.1 1.1zm-9.3 8.8l1.1 1-17.3 20.1-1.1-1zm13.2-1.7l22.9 6.3-0.4 1.5-22.9-6.4zm-15.6-1.1l0.5 1.4-12.5 4.7-0.5-1.4zm14-6.5l20.5-7.2 0.5 1.4-20.5 7.2zm-9.9-2.4l-11.7-24.9 1.4-0.7 0.1 0.4 11.7 24.8-1.4 0.7zm-69.5 10.9c3.2 0.3 3.2 0.3 5.1 2.3 0.8 1.4 0.8 1.4 1.6 2.8 0.9 1.5 0.9 1.5 1.8 3.1 0.8 1.5 0.8 1.5 1.7 3.1 0.8 1.5 0.8 1.5 1.6 2.9 14.3 27 16.3 58.9 7.4 88-6.5 20.1-17.2 37.1-32 52.1q-1.3 1.3-2.5 2.6c-19.3 18.8-45 27.9-71.4 29.6-3.1-0.2-3.1-0.2-5.1-2.2-0.1-3.1-0.1-3.1 0-6 4.1-1.9 7.8-2.4 12.2-2.8 20.2-2.2 38.2-10.2 53.8-23.2q1.4-1.1 2.8-2.3c20.8-18 33.7-44.6 36.9-71.8q0.2-2.4 0.3-4.9c0.1-1.5 0.1-1.5 0.1-3 0.7-23.2-6.3-44.7-19.1-64 0.7-5.8 0.7-5.8 4.8-6.3zm-146.8-108.7c1.6 0.8 1.6 0.8 3.2 1.7 9.9 5.4 19.2 13 26.8 21.3 0.4 3.2 0.4 3.2 0 6-1 1-1 1-2 2-5.6-0.4-10.4-2.6-15.5-4.7-17.9-6.4-37.6-4.4-54.8 3.4-17.5 8.5-31.2 22.6-38.1 41-6.2 19.9-5.3 39.6 3.6 58.6 10.3 19.5 26.9 31.3 47.5 37.8 16.6 4.6 35.2 3.1 50.6-4.7 3.1-1.6 4.4-1.5 7.7-0.4 1 1 1 1 1.5 3.6-1.3 8.1-10.9 13.6-17.1 18.1-20.3 14-41.1 19.3-65.4 20.3 12 35.2 32.1 57.8 65.4 74.2q1 0.5 2 1c1.6 0.8 1.6 0.8 2.6 1.8 0.2 2.5 0.2 2.5 0 5q-1 1-2 2c-5.6-0.2-9.9-2-14.8-4.6q-1-0.5-2.1-1.1c-11.1-5.8-20.1-12.6-29.1-21.3-1.1-0.9-1.1-0.9-2.2-1.9-14.8-14-26.9-35.9-29.8-56.1q-1.8-0.1-3.6-0.2c-26.7-3.1-51.5-17.8-68.4-38.4-18.4-23.4-26.7-52.5-23.3-82.2 2.7-20.1 10.1-38.6 23.3-54.2 0.9-1.1 0.9-1.1 1.8-2.3 12.9-15.6 32-26.9 51.2-32.7q1-0.3 2.1-0.6c26.4-7.5 54.6-4.7 78.9 7.6zm-55.5 140.8c-1.7-2.7-1.7-2.7-1.3-5.3 0.5-1.5 0.5-1.5 1.1-2.9 0.6-1.6 0.6-1.6 1.3-3.2 0.7-1.7 0.7-1.7 1.4-3.3 0.6-1.5 0.6-1.5 1.2-3 11.9-27.3 35-48.1 62.6-59 19.3-7.3 38.8-9.4 59.2-7.2q1.8 0.1 3.5 0.3c26 3.3 48.6 17.3 65.9 36.5 1.8 2.5 1.8 2.5 1.5 5.2-2.3 2-2.3 2-4.6 3.7-3.9-2-6.6-4.5-9.6-7.7-14-14-30.9-22.9-50.3-26.9q-1.7-0.4-3.5-0.8c-26.3-4.9-54.5 1.4-77.2 15.5q-1.9 1.3-3.9 2.7c-1.2 0.9-1.2 0.9-2.4 1.8-18.1 13.6-30.3 31.9-37.1 53.4-4.9 3-4.9 3-7.8 0.2zm105.5 194.2c3-0.3 3-0.3 6 0 2.4 3.6 2.3 6.2 2.2 10.4q0 1.1 0.1 2.3 0 3.7-0.1 7.4 0.1 2.5 0.1 5.1 0 5.4-0.1 10.8 0 6.9 0.1 13.8 0 5.3 0 10.7-0.1 2.5 0 5.1 0 3.5-0.1 7.1 0 1 0.1 2.1c-0.1 3.7-0.2 5.1-2.3 8.2-3 0.4-3 0.4-6 0-2.4-3.6-2.3-6.2-2.3-10.3q0-1.1 0-2.3 0-3.7 0-7.4 0-2.6 0-5.1 0-5.4 0-10.8 0-6.9 0-13.8 0-5.4 0-10.7 0-2.5 0-5.1 0-3.5 0-7.1 0-1 0-2.1c0-3.7 0.2-5.1 2.3-8.3zm0-399c3-0.3 3-0.3 6 0 2.4 3.6 2.3 6.2 2.2 10.4q0 1.1 0.1 2.3 0 3.7-0.1 7.4 0.1 2.5 0.1 5.1 0 5.4-0.1 10.8 0 6.9 0.1 13.8 0 5.3 0 10.7-0.1 2.5 0 5.1 0 3.5-0.1 7.1 0 1 0.1 2.1c-0.1 3.7-0.2 5.1-2.3 8.2-3 0.4-3 0.4-6 0-2.4-3.6-2.3-6.2-2.3-10.3q0-1.1 0-2.3 0-3.7 0-7.4 0-2.6 0-5.1 0-5.4 0-10.8 0-6.9 0-13.8 0-5.4 0-10.7 0-2.5 0-5.1 0-3.5 0-7.1 0-1 0-2.1c0-3.7 0.2-5.1 2.3-8.3zm171.3 235.8q1.2 0 2.3 0 3.7 0 7.4 0 2.6 0 5.2 0 5.4 0 10.7 0 7 0 13.9 0 5.3 0 10.6 0 2.5 0 5.1 0 3.6 0 7.1 0c1.1 0 1.1 0 2.2 0 3.6 0 5.1 0.2 8.2 2.2 0.4 3 0.4 3 0 6-3.6 2.4-6.1 2.3-10.3 2.3-1.1 0-1.1 0-2.2 0q-3.6 0-7.3 0-2.5 0-5.1 0-5.3 0-10.6 0-6.8 0-13.6 0-5.3 0-10.5 0-2.5 0-5 0-3.5 0-7 0c-1.1 0-1.1 0-2.1 0-3.6 0-6.3-0.3-9.3-2.3-0.2-2.8-0.2-2.8 0-6 3.6-2.4 6.2-2.2 10.3-2.2zm-50.3 116.2c2 1.7 3.7 3.2 5.5 5q0.8 0.8 1.6 1.6 2.6 2.6 5.2 5.2 1.8 1.8 3.6 3.6 3.8 3.7 7.5 7.5 4.9 4.9 9.7 9.7 3.8 3.7 7.5 7.4 1.7 1.8 3.5 3.5 2.5 2.5 5 5 0.7 0.8 1.5 1.5c2.2 2.2 3.3 3.6 3.8 6.8-0.4 2.2-0.4 2.2-2.4 4.2-2.3 0.5-2.3 0.5-5 0-2.1-1.5-3.8-3.1-5.6-4.9q-0.9-0.8-1.7-1.6-2.6-2.6-5.3-5.3-1.8-1.8-3.7-3.6-3.8-3.9-7.6-7.7-5-5-9.9-9.8-3.9-3.8-7.6-7.6-1.9-1.8-3.7-3.6-2.5-2.6-5.1-5.1-0.7-0.8-1.5-1.5c-1.4-1.4-1.4-1.4-3.3-4.3 0.1-3.3 0.1-3.3 1-6 2.8-1.4 4-0.9 7 0zm-231.7-0.8q1.3 0.4 2.7 0.8c0.8 2.7 0.8 2.7 1 6-1.6 2.3-2.9 3.9-4.9 5.8q-0.8 0.8-1.6 1.6-2.6 2.7-5.3 5.3-1.8 1.8-3.6 3.6-3.9 3.9-7.8 7.7-4.9 4.9-9.8 9.8-3.8 3.8-7.6 7.6-1.9 1.8-3.7 3.6-2.5 2.6-5.1 5.1c-0.7 0.7-0.7 0.7-1.5 1.5-2.3 2.2-3.7 3.4-6.8 3.9-2.3-0.5-2.3-0.5-4.3-2.5-0.5-2.2-0.5-2.2 0-5 1.6-2 3.1-3.8 4.9-5.6 0.8-0.8 0.8-0.8 1.6-1.6q2.7-2.7 5.3-5.3 1.8-1.9 3.7-3.7 3.8-3.9 7.7-7.7 4.9-4.9 9.8-9.9 3.7-3.8 7.5-7.6 1.9-1.8 3.7-3.6 2.5-2.6 5.1-5.1c0.7-0.8 0.7-0.8 1.4-1.5 2.7-2.7 3.8-3.4 7.6-3.2zm283.7-282.2c2 2 2 2 2.4 4.4-0.5 3.5-1.8 4.7-4.3 7.1q-1.3 1.3-2.6 2.6-1.4 1.4-2.8 2.8-1.4 1.4-2.8 2.9-3 3-6.1 5.9-3.8 3.9-7.7 7.7-2.9 3-5.9 5.9-2.1 2.1-4.2 4.2-1.3 1.3-2.6 2.6c-1.1 1.1-1.1 1.1-2.3 2.2-2.1 1.8-3.4 2.5-6.1 2.7-2.3-1.4-2.3-1.4-4-3 0.5-4.4 1.9-6.3 5-9.5q1.2-1.3 2.5-2.6 1.4-1.3 2.8-2.7 1.4-1.5 2.9-2.9 3-3 6-6 3.8-3.8 7.6-7.7 2.9-3 5.9-5.9 2.1-2.1 4.2-4.2 1.3-1.3 2.6-2.6 1.1-1.1 2.3-2.3c2.6-1.9 4-2.1 7.2-1.6zm-403.5 166.8c1.4 0 1.4 0 2.8-0.1q1.4 0 2.9 0 1.5 0 3.1 0 3.2 0 6.4 0 4.9 0 9.8 0 3.1 0 6.2 0 1.5 0 3 0 1.4 0 2.8 0 1.2 0 2.4 0c2.6 0.4 3.5 1.2 5.1 3.3-0.3 3.2-0.3 3.2-1 6-2.8 1-4.5 1.2-7.4 1.2q-1.4 0-2.7 0-1.5 0-2.9 0c-1.5 0-1.5 0-3 0q-3.2 0-6.3 0-4.8 0-9.6 0.1-3 0-6.1 0-1.4 0-2.9 0-1.3 0-2.7 0-1.2 0-2.4 0c-2-0.3-2-0.3-5-2.3-0.4-3-0.4-3 0-6 3.1-2.1 3.9-2.2 7.5-2.2zm172 148.9c1.2 0.2 1.2 0.2 2.5 0.3 2 3 2 3 1.8 5.8-1.4 5.8-3.8 11.1-6 16.6q-0.7 1.8-1.4 3.6c-0.7 1.7-0.7 1.7-1.5 3.5-0.6 1.5-0.6 1.5-1.2 3.1-1.7 2.4-1.7 2.4-4.8 3.4q-1.4 0-2.9 0-1-0.9-2-2c0.1-7.7 2.7-13.9 5.9-20.9q0.7-1.5 1.4-3.1c4.3-9.8 4.3-9.8 8.2-10.3zm233.2-79q1.1 0.4 2.1 0.8c3.5 1.5 5 2.3 7.2 5.5-0.4 3-0.9 3.9-3 6-4.5-0.3-8.2-1.7-12.3-3.4q-1.7-0.8-3.4-1.5-1.8-0.8-3.6-1.6-1.8-0.7-3.7-1.5c-8.9-3.8-8.9-3.8-10-5q0.4-3.5 1-7c7.3-2.4 18.7 4.7 25.7 7.7zm-317.7-7.7c1 1 1 1 1 4.1q0 1.5 0 2.9c-6.9 3.7-13.8 6.9-21 10q-1 0.5-2.1 0.9c-4 1.7-6.8 2.8-10.9 1.1-1.3-2.5-1.3-2.5-2-5 4.4-4.9 9.7-6.7 15.8-9.2q1.6-0.7 3.2-1.4c5.5-2.3 10-4.1 16-3.4zm208.4 87.2c2.6 0.8 2.6 0.8 4.2 3q0.6 1.5 1.3 3 0.8 1.6 1.5 3.2 0.8 1.8 1.6 3.6 0.4 1 0.8 2c5.8 13.2 5.8 13.2 5.2 19-2 2-2 2-4.9 2.1-3.1-1.1-3.1-1.1-4.9-3.8q-0.7-1.7-1.5-3.5-0.4-1-0.8-1.9-0.8-2-1.6-4-1.2-3.1-2.4-6.2c-4.5-11.1-4.5-11.1-2.9-15.7 2-1 2-1 4.4-0.8zm7.6-325.2c3-0.2 3-0.2 6 0 1 1 1 1 1.2 4.2-0.2 4-1 6.6-2.6 10.2q-0.7 1.7-1.5 3.5-0.8 1.7-1.6 3.5-0.7 1.8-1.5 3.7c-3.8 8.8-3.8 8.8-5 9.9-3 0.2-3 0.2-6 0q-1-0.9-2-2c0.3-4.2 1.6-7.8 3.2-11.7q0.7-1.6 1.3-3.2 0.7-1.6 1.4-3.2 0.7-1.7 1.4-3.4c3.4-8 3.4-8 5.7-11.5zm11.7 369.4q1.1 0.3 2.3 0.6c1.3 5.5 1.3 5.5-0.1 8-1.9 1-1.9 1-4.5 0.8-2.4-0.8-2.4-0.8-3.4-1.8-0.3-2.9-0.3-2.9 0-6 3-2 3-2 5.7-1.6zm129.3-106.4c2.4 0.7 2.4 0.7 5 2 1 2.5 1 2.5 1 5-1.1 1.9-1.1 1.9-3 3-2.6 0-2.6 0-5-1-1.3-2.5-1.3-2.5-2-5q2-1.9 4-4zm-424 0c2.4 0.7 2.4 0.7 5 2 1 2.5 1 2.5 1 5-1.1 1.9-1.1 1.9-3 3-2.6 0-2.6 0-5-1-1.3-2.5-1.3-2.5-2-5q2-1.9 4-4zm124.9 124.9c3.1 0.1 3.1 0.1 5.1 2.1 0.3 2.5 0.3 2.5 0 5-3 2-3 2-5.6 1.7-2.4-0.7-2.4-0.7-3.4-1.7-0.1-3-0.1-3 0-6 1-1 1-1 3.9-1.1zm72.1-99c3 0.1 3 0.1 4 1.1q0 3.5 0 7c-2.3 0.4-4.6 0.7-7 1-2-3-2-3-1.7-5.6 1-3.4 1-3.3 4.7-3.5zm209.4-33c2.6 0.1 2.6 0.1 4.6 2.1 0.1 3.2 0.1 3.2 0 6-2.3 0.4-4.6 0.7-7 1-2-3-2-3-1.7-5.6 1-3.3 1-3.3 4.1-3.5zm-386.9-0.1c2.5 0.2 2.5 0.2 4.5 2.2 0.2 2.5 0.2 2.5 0 5-2 2-2 2-4.5 2.3-2.5-0.3-2.5-0.3-4.5-2.3-0.3-2.5-0.3-2.5 0-5 2-2 2-2 4.5-2.2zm281.5-291.9c3 0.1 3 0.1 4 1.1 0.2 3 0.2 3 0 6q-1 1-2 2c-3.1-0.3-3.1-0.3-6-1-0.6-2.8-0.6-2.8-1-6 2-2 2-2 5-2.1zm-3 424.1c3-0.2 3-0.2 6 0 1 1 1 1 1.2 4-0.2 3-0.2 3-2.2 5-3.1-0.3-3.1-0.3-6-1-0.6-2.3-0.6-2.3-1-5q1-1.4 2-3zm-4.5-406.3c1.2 0.2 1.2 0.2 2.5 0.3 2 3 2 3 1.7 5.7-0.7 2.3-0.7 2.3-1.7 3.3-2.5 0.2-2.5 0.2-5 0-2-2-2-2-2.3-4.5 0.4-3.5 1.3-4.3 4.8-4.8zm-161.5 387.3c2.7 0.9 2.7 0.9 5 2q0 3 0 6c-2.3 1.2-2.3 1.2-5 2-2.3-1.3-2.3-1.3-4-3 0.3-2.3 0.3-2.3 1-5q1.5-0.9 3-2z"
     id="path1"
     style="fill:#198dff;fill-opacity:1" />
  <metadata
     id="metadata1">
    <rdf:RDF>
      <cc:Work
         rdf:about="">
        <dc:title>moon-sun-star</dc:title>
      </cc:Work>
    </rdf:RDF>
  </metadata>
</svg>
