<?xml version="1.0" encoding="UTF-8" standalone="no"?>
<svg
   version="1.0"
   width="32pt"
   height="32pt"
   viewBox="0 0 32 32"
   preserveAspectRatio="xMidYMid"
   id="svg15"
   sodipodi:docname="planets-32.svg"
   inkscape:version="1.4 (86a8ad7, 2024-10-11)"
   xmlns:inkscape="http://www.inkscape.org/namespaces/inkscape"
   xmlns:sodipodi="http://sodipodi.sourceforge.net/DTD/sodipodi-0.dtd"
   xmlns="http://www.w3.org/2000/svg"
   xmlns:svg="http://www.w3.org/2000/svg">
  <defs
     id="defs15" />
  <sodipodi:namedview
     id="namedview15"
     pagecolor="#ffffff"
     bordercolor="#000000"
     borderopacity="0.25"
     inkscape:showpageshadow="2"
     inkscape:pageopacity="0.0"
     inkscape:pagecheckerboard="0"
     inkscape:deskcolor="#d1d1d1"
     inkscape:document-units="pt"
     inkscape:zoom="16"
     inkscape:cx="17.59375"
     inkscape:cy="20.90625"
     inkscape:window-width="1920"
     inkscape:window-height="974"
     inkscape:window-x="-11"
     inkscape:window-y="-11"
     inkscape:window-maximized="1"
     inkscape:current-layer="svg15" />
  <g
     transform="matrix(0.00694856,0,0,-0.00660172,-2.1364658,33.081767)"
     fill="#000000"
     stroke="none"
     id="g15"
     style="fill:#00bcff;fill-opacity:1">
    <path
       d="m 880,4988 c -151,-78 -86,-309 83,-295 84,7 147,74 147,157 0,119 -123,193 -230,138 z m 104,-120 c 8,-13 8,-23 0,-35 -16,-26 -51,-28 -64,-4 -25,47 36,83 64,39 z"
       id="path1"
       style="fill:#00bcff;fill-opacity:1" />
    <path
       d="m 2924,4750 c -36,-14 -64,-59 -64,-102 0,-86 101,-130 168,-73 89,75 3,219 -104,175 z"
       id="path2"
       style="fill:#00bcff;fill-opacity:1" />
    <path
       d="m 4376,4708 c -9,-12 -16,-39 -16,-59 0,-36 -1,-36 -45,-41 -54,-7 -75,-22 -75,-55 0,-48 17,-63 70,-63 h 50 v -45 c 0,-51 25,-85 63,-85 34,0 55,29 59,80 l 3,45 45,3 c 117,9 104,122 -14,122 -36,0 -36,0 -36,44 0,27 -6,51 -16,60 -23,24 -70,20 -88,-6 z"
       id="path3"
       style="fill:#00bcff;fill-opacity:1" />
    <path
       d="m 1265,4464 c -90,-22 -117,-31 -168,-55 -32,-16 -67,-35 -78,-43 -19,-13 -30,-11 -107,15 -236,80 -409,73 -450,-16 -18,-39 -14,-100 8,-149 30,-62 119,-166 205,-238 l 74,-63 1,-80 c 1,-153 59,-293 168,-403 201,-202 477,-247 727,-118 l 81,42 100,-33 c 268,-86 427,-61 441,70 10,85 -71,208 -221,337 l -76,65 v 79 c 0,43 -7,106 -16,140 -50,193 -216,365 -414,427 -63,20 -230,34 -275,23 z m 197,-125 c 172,-36 317,-170 369,-341 17,-56 20,-87 17,-166 -6,-116 -29,-184 -94,-273 -41,-54 -48,-60 -72,-54 -42,10 -297,136 -417,205 -198,114 -385,245 -385,270 0,10 18,54 40,98 100,200 322,307 542,261 z m -667,-49 c 44,-11 83,-24 87,-28 4,-4 -4,-24 -18,-43 -14,-18 -41,-65 -60,-103 l -33,-69 -74,75 c -82,82 -133,159 -123,185 5,13 17,15 74,10 37,-4 103,-16 147,-27 z m 410,-685 c 55,-32 162,-88 239,-125 l 138,-68 -55,-21 c -258,-96 -555,51 -637,316 -38,122 -36,123 98,34 64,-43 162,-104 217,-136 z m 863,-69 c 69,-78 92,-123 72,-137 -28,-19 -275,22 -303,50 -4,4 9,33 31,64 21,31 47,76 56,102 l 18,45 36,-31 c 21,-17 61,-59 90,-93 z"
       id="path4"
       style="fill:#00bcff;fill-opacity:1" />
    <path
       d="m 2293,4063 c -30,-6 -70,-48 -76,-81 -19,-97 104,-163 174,-93 72,72 4,192 -98,174 z"
       id="path5"
       style="fill:#00bcff;fill-opacity:1" />
    <path
       d="m 3206,4010 c -161,-51 -207,-250 -86,-370 93,-93 217,-93 311,0 109,109 82,286 -55,357 -36,18 -130,26 -170,13 z m 141,-145 c 32,-32 35,-40 30,-77 -8,-59 -45,-93 -102,-93 -57,0 -94,34 -102,93 -5,37 -2,45 30,77 27,27 43,35 72,35 29,0 45,-8 72,-35 z"
       id="path6"
       style="fill:#00bcff;fill-opacity:1" />
    <path
       d="m 3895,3665 c -49,-48 -16,-125 53,-125 69,0 99,87 46,129 -35,28 -69,26 -99,-4 z"
       id="path7"
       style="fill:#00bcff;fill-opacity:1" />
    <path
       d="m 4614,3621 c -143,-49 -337,-167 -618,-375 -63,-47 -151,-117 -195,-156 -65,-57 -81,-77 -81,-99 0,-32 27,-61 56,-61 11,0 66,39 124,87 329,271 702,500 834,511 69,6 75,-5 52,-91 C 4721,3198 4358,2687 3868,2145 3493,1729 2956,1213 2559,889 2084,500 1745,290 1593,290 c -42,0 -43,1 -43,33 0,124 148,381 439,765 80,106 155,208 165,226 19,32 19,35 3,60 -17,26 -58,35 -83,18 -19,-13 -262,-332 -358,-472 -186,-269 -277,-455 -283,-580 -6,-106 24,-150 115,-171 163,-36 581,205 1090,628 l 114,95 97,-30 c 184,-59 334,-74 496,-49 235,37 430,134 607,305 210,202 323,452 335,737 6,151 -9,262 -56,399 l -30,88 138,171 c 314,392 483,652 546,842 82,245 -27,352 -271,266 z M 4134,2170 c 16,-55 16,-65 1,-121 -58,-227 -351,-591 -581,-720 -56,-32 -69,-57 -52,-95 17,-36 48,-39 104,-11 153,78 343,263 494,482 l 62,90 -6,-55 c -4,-30 -21,-95 -37,-145 -103,-308 -343,-540 -655,-630 -184,-53 -419,-49 -582,12 -21,8 -20,11 35,58 294,254 831,790 1118,1118 38,42 72,77 75,77 4,0 15,-27 24,-60 z"
       id="path8"
       style="fill:#00bcff;fill-opacity:1" />
    <path
       d="m 4088,3036 c -86,-35 -205,-113 -211,-138 -6,-22 8,-57 27,-70 22,-15 47,-7 119,37 89,54 147,79 147,65 0,-19 -51,-113 -107,-198 l -55,-83 -86,83 c -148,142 -289,222 -490,276 -87,23 -115,26 -272,26 -158,0 -185,-3 -275,-27 -119,-32 -294,-117 -386,-186 -85,-65 -185,-171 -247,-263 -129,-191 -183,-371 -183,-608 0,-305 102,-559 308,-770 45,-46 79,-87 75,-90 -114,-86 -294,-188 -300,-170 -5,13 49,118 93,183 19,28 35,61 35,73 0,28 -30,54 -63,54 -34,0 -79,-59 -145,-189 -39,-78 -47,-104 -47,-148 0,-48 4,-58 29,-80 26,-22 37,-25 85,-21 187,14 634,360 1212,937 466,467 783,849 901,1089 34,66 42,95 42,139 1,48 -2,58 -27,79 -37,32 -102,32 -179,0 z m -731,-132 c 79,-16 183,-51 183,-61 0,-13 -87,-163 -141,-244 -85,-127 -201,-270 -349,-428 -71,-77 -130,-146 -130,-155 0,-49 44,-75 89,-51 35,18 236,234 349,375 120,151 259,366 284,441 4,11 18,5 64,-25 70,-46 214,-183 214,-204 0,-39 -347,-430 -659,-743 -293,-292 -669,-629 -703,-629 -18,0 -162,152 -206,219 l -42,63 98,49 c 53,27 135,75 182,107 69,46 86,62 88,85 4,34 -22,67 -53,67 -12,0 -58,-23 -101,-52 -87,-58 -237,-138 -258,-138 -25,0 -69,175 -81,320 l -7,75 69,30 c 226,98 550,399 672,626 50,93 66,155 46,186 -33,49 -97,32 -110,-29 -28,-130 -222,-369 -429,-530 -92,-71 -213,-144 -223,-135 -9,9 17,106 50,187 121,297 384,518 702,590 104,24 298,26 402,4 z"
       id="path9"
       style="fill:#00bcff;fill-opacity:1" />
    <path
       d="m 776,2804 c -10,-9 -16,-33 -16,-60 0,-44 0,-44 -35,-44 -75,0 -114,-45 -81,-95 14,-21 24,-25 66,-25 h 50 v -48 c 0,-54 20,-82 58,-82 37,0 62,34 62,85 v 45 h 41 c 59,0 79,14 79,55 0,42 -29,65 -82,65 -37,0 -38,1 -38,38 0,50 -23,82 -60,82 -16,0 -36,-7 -44,-16 z"
       id="path10"
       style="fill:#00bcff;fill-opacity:1" />
    <path
       d="m 1712,2745 c -39,-17 -66,-72 -57,-116 10,-43 58,-79 107,-79 76,0 121,79 87,153 -21,45 -84,65 -137,42 z"
       id="path11"
       style="fill:#00bcff;fill-opacity:1" />
    <path
       d="m 840,1631 c -70,-37 -100,-137 -62,-211 51,-102 214,-109 274,-12 30,49 31,130 2,169 -53,71 -141,93 -214,54 z m 110,-116 c 26,-32 -16,-74 -54,-53 -16,9 -22,49 -9,61 12,12 50,7 63,-8 z"
       id="path12"
       style="fill:#00bcff;fill-opacity:1" />
    <path
       d="m 4374,1466 c -26,-26 -34,-42 -34,-71 0,-29 8,-45 34,-71 26,-26 42,-34 71,-34 29,0 45,8 71,34 26,26 34,42 34,71 0,29 -8,45 -34,71 -26,26 -42,34 -71,34 -29,0 -45,-8 -71,-34 z"
       id="path13"
       style="fill:#00bcff;fill-opacity:1" />
    <path
       d="m 462,848 c -7,-7 -12,-34 -12,-60 v -48 h -45 c -51,0 -85,-25 -85,-63 0,-34 29,-55 80,-59 l 45,-3 3,-45 c 9,-117 122,-104 122,14 0,36 0,36 44,36 52,0 76,19 76,60 0,36 -32,60 -81,60 -36,0 -36,1 -41,45 -3,25 -11,52 -18,60 -15,18 -71,20 -88,3 z"
       id="path14"
       style="fill:#00bcff;fill-opacity:1" />
    <path
       d="m 3984,715 c -69,-29 -87,-114 -35,-166 24,-23 38,-29 73,-29 54,0 83,19 98,65 29,88 -53,166 -136,130 z"
       id="path15"
       style="fill:#00bcff;fill-opacity:1" />
  </g>
</svg>
